<svg xmlns="http://www.w3.org/2000/svg" width="54.586" height="54.585" viewBox="0 0 54.586 54.585"><g transform="translate(-131.32 -462.297)"><path d="M158.613,516.882a27.293,27.293,0,1,1,27.293-27.292A27.324,27.324,0,0,1,158.613,516.882Z" fill="#3c5a99"/><path d="M154.333,489.719v15.818a.412.412,0,0,0,.412.412h5.874a.412.412,0,0,0,.412-.412V489.461h4.259a.412.412,0,0,0,.41-.377l.41-4.844a.413.413,0,0,0-.411-.447h-4.668v-3.436a1.458,1.458,0,0,1,1.458-1.459h3.283a.412.412,0,0,0,.412-.411v-4.844a.412.412,0,0,0-.412-.412h-5.546a5.893,5.893,0,0,0-5.893,5.893v4.669H151.4a.412.412,0,0,0-.412.412v4.844a.411.411,0,0,0,.412.412h2.937Z" fill="#fff" fill-rule="evenodd"/></g></svg>