<svg xmlns="http://www.w3.org/2000/svg" xmlns:xlink="http://www.w3.org/1999/xlink" width="315.267" height="291.877" viewBox="0 0 315.267 291.877"><defs><linearGradient id="a" x1="0.5" y1="0.494" x2="0.5" y2="1.933" gradientUnits="objectBoundingBox"><stop offset="0.062" stop-color="#e38204"/><stop offset="1" stop-color="#e35802"/></linearGradient><linearGradient id="b" x1="0.5" y1="0.256" x2="0.5" y2="0.954" xlink:href="#a"/><linearGradient id="c" x1="0.5" y1="0.846" x2="0.5" y2="3.761" xlink:href="#a"/><linearGradient id="d" x1="0" y1="0.5" x2="1" y2="0.5" xlink:href="#a"/><linearGradient id="e" x1="0" y1="0.5" x2="1" y2="0.5" xlink:href="#a"/><linearGradient id="f" x1="0.331" y1="0.11" x2="0.6" y2="0.574" gradientUnits="objectBoundingBox"><stop offset="0" stop-color="#28c5f4"/><stop offset="1" stop-color="#0077ec"/></linearGradient><linearGradient id="g" x1="0.058" y1="0.057" x2="0.692" y2="0.694" gradientUnits="objectBoundingBox"><stop offset="0" stop-color="#008bec"/><stop offset="1" stop-color="#0077ec"/></linearGradient><linearGradient id="h" x1="0.803" y1="0.201" x2="0.4" y2="0.695" xlink:href="#f"/><linearGradient id="i" x1="0" y1="0.5" x2="1" y2="0.5" xlink:href="#g"/><linearGradient id="j" x1="0" y1="0.5" x2="1" y2="0.5" xlink:href="#a"/></defs><g transform="translate(-95 -87)"><g transform="translate(95 87)"><path d="M154.623,175.952a2.67,2.67,0,1,0,3-2.292A2.67,2.67,0,0,0,154.623,175.952Z" transform="translate(-68.162 -86.241)" fill="#2b1e65"/><path d="M143.594,159.751a5.343,5.343,0,1,0,6.006-4.584A5.344,5.344,0,0,0,143.594,159.751Z" transform="translate(-68.131 -86.189)" fill="#2b1e65"/><g transform="translate(0 0)"><g transform="translate(0)"><circle cx="26.005" cy="26.005" r="26.005" transform="translate(0 32.52) rotate(-38.702)" fill="#2b1e65"/><circle cx="15.403" cy="15.403" r="15.403" transform="translate(43.592 69.243) rotate(-89.211)" fill="#2b1e65"/></g><g transform="translate(19.436 23.422)"><path d="M128.644,130.7a7.884,7.884,0,0,0-1.835-2.005,8.112,8.112,0,0,0-9.725-.136l0,0-15.327-12.04-8.507-6.678a1.659,1.659,0,0,0-2.327.276l-1.712,2.18,0,0-1.5,1.912a1.392,1.392,0,0,0,.237,1.958l.194.152a1.394,1.394,0,0,0,1.958-.232l1.5-1.911,1.382,1.085-1.5,1.912a1.4,1.4,0,0,0,.238,1.958l.252.2a1.394,1.394,0,0,0,1.958-.232l1.5-1.912,1.394,1.09-1.451,1.853a1.443,1.443,0,0,0,.077,1.924,1.392,1.392,0,0,0,2.068-.14L99.02,120l15.328,12.04a8.118,8.118,0,0,0,14.124,7.79A8.183,8.183,0,0,0,128.644,130.7Zm-3.844,8.942a2.08,2.08,0,1,1,1.454-3.713,2.048,2.048,0,0,1,.693,1l0,0a2.084,2.084,0,0,1-2.151,2.712Z" transform="translate(-87.412 -109.486)" fill="#fff"/><path d="M128.544,139.888a8.118,8.118,0,0,1-14.73-4.7c1.309,2.674,3.368,5.032,6.583,5.532a5.681,5.681,0,0,0,4.476-1.017,2.084,2.084,0,0,0,2.151-2.711l0,0a18.727,18.727,0,0,0,1.7-6.228A8.183,8.183,0,0,1,128.544,139.888Z" transform="translate(-87.485 -109.544)" fill="#fff"/></g></g></g><circle cx="67.956" cy="67.956" r="67.956" transform="matrix(0.23, -0.973, 0.973, 0.23, 147.059, 315.779)" fill="#dfc9e1" opacity="0.36"/><circle cx="51.647" cy="51.647" r="51.647" transform="translate(201.628 147.825)" fill="#dfc9e1" opacity="0.36"/><circle cx="51.647" cy="51.647" r="51.647" transform="translate(290.723 281.77) rotate(-80.69)" fill="#dfc9e1" opacity="0.36"/><path d="M0,0" transform="translate(143.095 378.877)" fill="none" stroke="#d7e3f4" stroke-width="2.181"/><g transform="translate(231.586 114.377)" opacity="0.36"><g transform="translate(0)"><path d="M244.728,113.5a8.841,8.841,0,0,0-2.935.826A9.1,9.1,0,0,0,236.747,124l0,0-19.8,9.282-10.987,5.154a1.861,1.861,0,0,0-.9,2.471l1.319,2.816,0,0,1.158,2.47a1.561,1.561,0,0,0,2.081.749l.25-.117a1.564,1.564,0,0,0,.756-2.079l-1.158-2.47,1.786-.837,1.157,2.47a1.565,1.565,0,0,0,2.082.749l.325-.153a1.564,1.564,0,0,0,.756-2.078l-1.158-2.47,1.8-.847,1.125,2.388a1.618,1.618,0,0,0,1.966.895,1.561,1.561,0,0,0,.9-2.143l-1.158-2.47,19.8-9.281a9.11,9.11,0,0,0,14.938-10.222A9.183,9.183,0,0,0,244.728,113.5Zm7.021,8.367a2.334,2.334,0,1,1-2.987-3.332,2.3,2.3,0,0,1,1.351-.19l0,0a2.337,2.337,0,0,1,1.631,3.524Z" transform="translate(-204.887 -113.451)" fill="#dfc9e1"/><path d="M253.9,118.285a9.109,9.109,0,0,1-12.152,12.387c3.341.038,6.743-.835,8.868-3.8a6.373,6.373,0,0,0,1.24-5,2.338,2.338,0,0,0-1.632-3.524l0,0a21.031,21.031,0,0,0-5.385-4.845A9.183,9.183,0,0,1,253.9,118.285Z" transform="translate(-204.988 -113.451)" fill="#dfc9e1"/></g></g><g transform="translate(332.475 144.098)" opacity="0.36"><path d="M331.551,143.778a4.585,4.585,0,0,0-1.51-.481,4.733,4.733,0,0,0-4.957,2.757v0l-11.249-1.633-6.243-.9a.967.967,0,0,0-1.1.816l-.232,1.6h0l-.2,1.4a.81.81,0,0,0,.689.92l.142.021a.813.813,0,0,0,.923-.687l.2-1.4,1.014.147-.2,1.4a.813.813,0,0,0,.689.92l.184.027a.813.813,0,0,0,.922-.686l.2-1.4,1.021.146-.194,1.358a.84.84,0,0,0,.6.95.811.811,0,0,0,1.005-.672l.2-1.4,11.249,1.632a4.734,4.734,0,0,0,9.4-.166A4.771,4.771,0,0,0,331.551,143.778Zm.655,5.638a1.215,1.215,0,1,1,.3-2h0a1.215,1.215,0,0,1-.3,2Z" transform="translate(-306.055 -143.254)" fill="#dfc9e1"/><g transform="translate(19.247 0.524)"><path d="M334.171,148.448a4.735,4.735,0,0,1-8.815,1.9,5.288,5.288,0,0,0,4.936.884,3.314,3.314,0,0,0,1.967-1.815,1.215,1.215,0,0,0,.3-2h0a10.935,10.935,0,0,0-.952-3.642A4.771,4.771,0,0,1,334.171,148.448Z" transform="translate(-325.356 -143.78)" fill="#dfc9e1"/></g></g><g transform="translate(224.949 135.719)"><rect width="154.269" height="139.225" rx="8.662" transform="translate(0 32.623)" fill="#dfc9e1"/><g transform="translate(24.487 76.68)"><rect width="105.295" height="15.1" fill="#fff"/><rect width="105.295" height="15.1" transform="translate(0 26.8)" fill="#fff"/><rect width="105.295" height="15.101" transform="translate(0 56.052)" fill="#781d83" opacity="0.5"/><g transform="translate(11.461 32.616)"><path d="M237.748,246.185a1.735,1.735,0,1,1-1.734-1.734A1.735,1.735,0,0,1,237.748,246.185Z" transform="translate(-234.279 -244.451)" fill="#1d262d"/><path d="M255.331,246.185a1.735,1.735,0,1,1-1.735-1.734A1.735,1.735,0,0,1,255.331,246.185Z" transform="translate(-234.328 -244.451)" fill="#1d262d"/><path d="M272.913,246.185a1.734,1.734,0,1,1-1.734-1.734A1.734,1.734,0,0,1,272.913,246.185Z" transform="translate(-234.376 -244.451)" fill="#1d262d"/><path d="M246.539,246.185a1.734,1.734,0,1,1-1.734-1.734A1.734,1.734,0,0,1,246.539,246.185Z" transform="translate(-234.303 -244.451)" fill="#1d262d"/><path d="M264.122,246.185a1.734,1.734,0,1,1-1.734-1.734A1.735,1.735,0,0,1,264.122,246.185Z" transform="translate(-234.352 -244.451)" fill="#1d262d"/><path d="M299.288,246.185a1.734,1.734,0,1,1-1.734-1.734A1.734,1.734,0,0,1,299.288,246.185Z" transform="translate(-234.449 -244.451)" fill="#1d262d"/><path d="M281.705,246.185a1.735,1.735,0,1,1-1.735-1.734A1.735,1.735,0,0,1,281.705,246.185Z" transform="translate(-234.4 -244.451)" fill="#1d262d"/><path d="M290.5,246.185a1.734,1.734,0,1,1-1.734-1.734A1.735,1.735,0,0,1,290.5,246.185Z" transform="translate(-234.425 -244.451)" fill="#1d262d"/><path d="M316.87,246.185a1.735,1.735,0,1,1-1.734-1.734A1.735,1.735,0,0,1,316.87,246.185Z" transform="translate(-234.498 -244.451)" fill="#1d262d"/><path d="M308.079,246.185a1.735,1.735,0,1,1-1.734-1.734A1.735,1.735,0,0,1,308.079,246.185Z" transform="translate(-234.473 -244.451)" fill="#1d262d"/></g><g transform="translate(28.995 6.632)"><path d="M255.331,220.13A1.735,1.735,0,1,1,253.6,218.4,1.735,1.735,0,0,1,255.331,220.13Z" transform="translate(-251.862 -218.395)" fill="#1d262d"/><path d="M272.913,220.13a1.734,1.734,0,1,1-1.734-1.735A1.734,1.734,0,0,1,272.913,220.13Z" transform="translate(-251.911 -218.395)" fill="#1d262d"/><path d="M264.122,220.13a1.734,1.734,0,1,1-1.734-1.735A1.735,1.735,0,0,1,264.122,220.13Z" transform="translate(-251.886 -218.395)" fill="#1d262d"/><path d="M299.288,220.13a1.734,1.734,0,1,1-1.734-1.735A1.734,1.734,0,0,1,299.288,220.13Z" transform="translate(-251.984 -218.395)" fill="#1d262d"/><path d="M281.705,220.13a1.735,1.735,0,1,1-1.735-1.735A1.735,1.735,0,0,1,281.705,220.13Z" transform="translate(-251.935 -218.395)" fill="#1d262d"/><path d="M290.5,220.13a1.734,1.734,0,1,1-1.734-1.735A1.735,1.735,0,0,1,290.5,220.13Z" transform="translate(-251.959 -218.395)" fill="#1d262d"/></g></g><g transform="translate(42.195 0)"><circle cx="24.827" cy="24.827" r="24.827" transform="matrix(0.634, -0.773, 0.773, 0.634, 0, 38.399)" fill="#652079"/><g transform="translate(25.424 25.424)"><line x1="19.031" y2="19.031" fill="none" stroke="#fff" stroke-miterlimit="10" stroke-width="2.273"/><line x1="19.031" y1="19.031" fill="none" stroke="#fff" stroke-miterlimit="10" stroke-width="2.273"/></g></g></g><g transform="translate(166.436 185.337)"><path d="M151.955,272.344l25.724-1.069,1.127-44.009-3.2-8.912-10.655-3.669-7.458-1.379a8.977,8.977,0,0,0-7.29,9.133L153,253.585Z" transform="translate(-139.586 -184.687)" fill="#f7d6b2"/><path d="M162.313,206.406v8.843s1.869,1.116,6.242,1.116c2.357,0,2.887.407,2.887.407v-4.792Z" transform="translate(-139.62 -184.668)" fill="#f7d6b2"/><path d="M161.281,199.749c.02.32.031.62.052.91,0,.1-.011.206-.011.32-.216,5.249,3.152,10.871,8.225,11.636,0,0,.042.01.114.021.042,0,.1.01.176.01,1.085.135,5.012.455,6.448-1.126a13.362,13.362,0,0,0,3.182-7.6,29.9,29.9,0,0,0-.423-3.82c0-.734.394-3.03.4-4.026.033-4.685-3.119-9.334-8.72-9.334C162.324,186.739,161.043,194.108,161.281,199.749Z" transform="translate(-139.617 -184.614)" fill="#f7d6b2"/><path d="M171.463,214.973" transform="translate(-139.645 -184.692)" fill="#6ebaad"/><g transform="translate(0 30.192)"><path d="M141.5,250.257c2.758,1.147,10.908-14.258,13.88-21.054s4.1-12.681.734-14.082-6.746,3.549-9.469,10.448S138.745,249.109,141.5,250.257Z" transform="translate(-139.56 -214.884)" fill="#f7d6b2"/><g transform="translate(0 29.715)"><path d="M142.547,280.99c2.649.042,3.685-19.439,3.773-24.943s-.227-11.32-3.2-11.366-3.468,5.756-3.555,11.26S139.9,280.948,142.547,280.99Z" transform="translate(-139.557 -244.681)" fill="#f7d6b2"/><path d="M142.757,276.033c-3.117-.28-2.989,5.273-2.876,7.166.184,3.082,3.377,6.089,4.574,6.035s.255-7,.518-7.25.4,3.526,1.525,3.358.724-4.745-.128-6.5S144.711,276.21,142.757,276.033Z" transform="translate(-139.557 -244.767)" fill="#f7d6b2"/></g></g><path d="M160.258,220.583a37.144,37.144,0,0,1-3.867,9.134c-2.14,3.918-4.07,7.28-5.325,9.445-.775,1.331-1.3,2.2-1.458,2.469-.033.059-.05.093-.05.093l-7.44-3.042s4.415-18.369,11.325-24.014a6.867,6.867,0,0,1,.918-.4C158.261,215.014,161.075,216.564,160.258,220.583Z" transform="translate(-139.564 -184.69)" fill="url(#a)"/><path d="M167.909,269.227c-2.564.971-3.992,5.041-3.125,8.827a56.376,56.376,0,0,0,4.038,11.4c5.327,11.293,9.449,26.392,13.227,26.338s5.031-9.42,1.328-21.62c-3.346-11.026-6.411-25.487-9.193-26.205C172.774,267.6,170.153,268.377,167.909,269.227Z" transform="translate(-139.626 -184.838)" fill="#f7d6b2"/><g transform="translate(37.398 128.404)"><path d="M183.328,313.511c-10.266-3.143-5.619,46.523-2.174,55.345s4.74-14.714,5.36-29.939S187.366,314.748,183.328,313.511Z" transform="translate(-177.059 -313.368)" fill="#f7d6b2"/></g><path d="M178.487,357.932c.117.156.857,13.707.857,13.707s6.542.468,6.542,0,.507-12.227.507-12.227Z" transform="translate(-139.664 -185.087)" fill="#f7d6b2"/><path d="M155.318,357.932c.117.156.857,13.707.857,13.707s6.542.468,6.542,0,.507-12.227.507-12.227Z" transform="translate(-139.6 -185.087)" fill="#f7d6b2"/><path d="M155.383,269.05c-2.7.456-4.893,4.172-4.777,8.054a56.29,56.29,0,0,0,1.751,11.969c3.038,12.11,4.154,27.722,7.872,28.4s6.76-8.266,5.493-20.952c-1.146-11.466-1.35-26.247-3.94-27.491C160.47,268.4,157.748,268.65,155.383,269.05Z" transform="translate(-139.587 -184.84)" fill="#f7d6b2"/><g transform="translate(14.999 129.418)"><path d="M161.662,314.577c-10.1-3.656-7.277,46.2-4.279,55.182s4.8-14.474,6.184-29.648S165.633,316.015,161.662,314.577Z" transform="translate(-154.597 -314.385)" fill="#f7d6b2"/></g><path d="M178.982,269.444s9.133,38.46,8.925,46.56-1.76,50.443-1.76,50.443-7.287.032-7.293,0c-5.622-30.571-3.3-48.769-3.922-52.2s-7.476-18.069-7.476-18.069-.312,16.822-.312,21.5-4.205,48.458-4.205,48.458l-7.541.156s-2.428-29.921-2.428-36,1.48-15.577,1.4-16.822-11.838-31.776-4.05-43.614C160.562,254.293,178.982,269.444,178.982,269.444Z" transform="translate(-139.579 -184.824)" fill="#652079"/><path d="M182.666,227.414a8.425,8.425,0,0,1-.177,1.938c-.076.363-.169.784-.312,1.3-.388,1.466-1.079,3.657-2.3,7.347-3.3,9.96-.362,31.455-.32,31.665,0,0-29.979.725-29.912-.143.481-5.923,5.056-11.189,1.155-32.01-3.2-17.122,1.053-23.634,4.811-24.081,7.406-.885,20.475,3.531,22.261,5.191S182.608,223.723,182.666,227.414Z" transform="translate(-139.585 -184.687)" fill="url(#b)"/><path d="M209.576,218.435c-.4-2.935-17.669-2.172-24.973-1.3s-12.9,2.857-12.411,6.44,6.421,3.989,13.688,2.855S209.979,221.371,209.576,218.435Z" transform="translate(-139.647 -184.696)" fill="#eed7ba"/><path d="M196.569,224.633s-7.93,3.051-14.054,4.736c-3.749,1.031-7.111.64-7.853-1.585-.017-.059-.118-.042-.176-.067-3.817-1.5-5.017-7.879-1.267-9.54,2.166-.96,6.793-.829,10.822-1.128,7.847-.583,10.692-.691,10.692-.691l1.736,7.811Z" transform="translate(-139.643 -184.696)" fill="url(#c)"/><path d="M180.806,193.16a9.186,9.186,0,0,1-1.345,4.1c-2.609,4.481-4.1,8.7-4.029,13.968.089,6.3,3.872,13.82-.037,19.654-5.693,8.5-20.317,7.889-26.681.795-4.254-4.743-5.232-12.42-.24-17.1,2.155-2.02,4.172-3.949,5.417-6.664,3.473-7.574,3.053-19.744,12.7-22.833C171.99,183.358,181.185,186.375,180.806,193.16Z" transform="translate(-139.572 -184.608)" fill="#1d262d"/><path d="M185.938,370.3s.69,2,4.859,4.61,5.261,2.039,5.355,3.015-17.328.173-17.328.173l.272-8.02S185.936,370.087,185.938,370.3Z" transform="translate(-139.665 -185.121)" fill="#652079"/><path d="M162.77,370.076a17.69,17.69,0,0,0,3.6,4.4c2.48,2.4,4.671,1.888,4.471,2.746-.192.825-14.922.29-14.922.29v-7.438Z" transform="translate(-139.602 -185.121)" fill="#652079"/><g transform="translate(37.987 3.629)"><path d="M184,193.578c-1.88,1.835,11.109,16.171,14.922,20.077s8.126,7.747,10.234,5.689-1.629-6.462-5.442-10.367S185.88,191.743,184,193.578Z" transform="translate(-177.666 -188.261)" fill="#eed7ba"/><path d="M177.74,188.558c-.731.728,3.146,4.274,4.16,5.428.154.175.245.3.241.344s-.068.048-.164.021c-.6-.164-2.735-1.529-3.346-.778-.671.826,2.282,3.622,4.121,4.525.1.05.213.118.308.156,1.794.716,2.976.826,4.527-.349,2.474-1.875-1.327-5.862-2.673-7.175a9.68,9.68,0,0,0-4.236-2.233C179.326,188.155,178.147,188.153,177.74,188.558Z" transform="translate(-177.649 -188.247)" fill="#eed7ba"/></g><path d="M151.12,239.14l-.034.076c-.775,1.331-1.3,2.2-1.458,2.469l.793-7.912A41.185,41.185,0,0,0,151.12,239.14Z" transform="translate(-139.585 -184.744)" opacity="0.5" fill="url(#d)" style="mix-blend-mode:multiply;isolation:isolate"/><path d="M182.564,229.4c-.076.363-.169.784-.312,1.3-1.879,1.129-5.657.255-5.657.255l5.936-1.545S182.539,229.4,182.564,229.4Z" transform="translate(-139.659 -184.732)" opacity="0.5" fill="url(#e)" style="mix-blend-mode:multiply;isolation:isolate"/></g><g transform="translate(349.002 283.919)"><g transform="translate(0 6.529)"><path d="M353.149,355.844a39.978,39.978,0,0,0-.1,11.289,17.374,17.374,0,0,1,.135,3.168,3.555,3.555,0,0,1-1.214,2.936c-1.421.9-3.219-.4-4.225-1.741-4.388-5.856-4.648-13.59-8.388-19.775-.576-.951-1.209-1.893-1.862-2.838l1.1-4.188-2.282,2.479c-2.61-3.767-5.131-7.665-5.1-12.354l3.346.284s-1.762-.723-3.318-1.331c.128-3.158.528-6.419-.582-9.392a20.671,20.671,0,0,0-3.856-5.669l2.193-3.262s-2.08.654-3.892,1.026c-.139-.208-.271-.422-.4-.637-1.976-3.369-2.19-7.234-2.022-11.036a51.843,51.843,0,0,1,.6-6.4c.8.045,1.489.078,1.489.078l-1.185-1.629a21.912,21.912,0,0,1,1.022-3.327c.3-.749,1.4-3.38,2.352-3.487,2.761-.311,5.066,2.213,6.051,4.81.933,2.459,1.361,4.918,2.415,7.22l-1.341,1.422,2.29.3c.111.173.225.34.349.508,2.817,3.852,7.787,6.854,10.675,10.624-2.206.6-4.3,1.331-4.3,1.331l6.092,1.9a9.551,9.551,0,0,1-.639,7.333c-.423.926-.891,1.813-1.31,2.707l-1.619-1.094,1.127,2.234a9.421,9.421,0,0,0-.754,3.764c.093,4.036,2.617,7.414,4.669,10.913C350.3,345.124,350,346.1,350,346.1l1.715-.167a16.627,16.627,0,0,1,1.132,2.8A16.3,16.3,0,0,1,353.149,355.844Z" transform="translate(-322.628 -290.011)" fill="url(#f)"/><g transform="translate(5.656 7.714)"><path d="M347.732,362.07c-.9-9.7-3.557-13.945-5.9-17.693a24.351,24.351,0,0,1-2.844-5.564,31.784,31.784,0,0,1-.926-8.293c-.151-5.036-.306-10.243-3.409-13.608-5.292-5.738-6.348-19.023-6.35-19.149l.923-.015-.462.007.462-.009c0,.124.99,13,6.105,18.541,3.337,3.618,3.5,9,3.654,14.206a31.191,31.191,0,0,0,.884,8.041,23.262,23.262,0,0,0,2.747,5.354c2.28,3.646,5.118,8.182,6.037,18.1Z" transform="translate(-328.3 -297.746)" fill="url(#g)" style="mix-blend-mode:screen;isolation:isolate"/></g></g><g transform="translate(17.815)"><path d="M357.352,364.35a10.516,10.516,0,0,0,4.039-3.216c2.766-4.121,2.461-9.656,3.238-14.356.924-5.591,3.421-11.114,7.845-14.658,3.588-2.874,6-6.067,6.749-10.752.74-4.605.257-9.294.757-13.919a72.4,72.4,0,0,1,2.933-14.265c1.252-3.943,2.576-10.53-3.963-9.636a10.56,10.56,0,0,0-6.68,3.746c-4.343,5.323-3.968,12.869-7.2,18.753-1.634,2.971-4.156,5.179-6.557,7.516-2.155,2.1-4.431,4.613-4.884,7.706-.264,1.8-.053,3.654-.471,5.422-.584,2.467-2.292,4.393-3.842,6.313a36.7,36.7,0,0,0-4.089,6.629c-3.012,5.9-5.979,13.436-4.188,20.089a9.173,9.173,0,0,0,3.086,5.052C347.711,367.466,353.651,366.2,357.352,364.35Z" transform="translate(-340.493 -283.463)" fill="url(#h)"/><path d="M360.111,318.587" transform="translate(-340.547 -283.561)" fill="none" stroke="#fff" stroke-linecap="round" stroke-miterlimit="10" stroke-width="1.2"/><path d="M357.349,322.2a.6.6,0,0,1,.676.509l1.722,12.274L370.7,313.44a.6.6,0,0,1,1.066.543l-8.012,15.756,11.15-7.81a.6.6,0,0,1,.686.98l-12.662,8.869a.587.587,0,0,1-.259.095l-10.453,20.558,7.653-3.471a.6.6,0,0,1,.495,1.09l-8.558,3.881a.6.6,0,0,1-.372.04l-1.989,3.911a.6.6,0,0,1-.8.262.608.608,0,0,1-.177-.135.6.6,0,0,1-.086-.669l10.492-20.634a.6.6,0,0,1-.136-.3l-1.9-13.527A.6.6,0,0,1,357.349,322.2Z" transform="translate(-340.515 -283.545)" fill="url(#i)" style="mix-blend-mode:screen;isolation:isolate"/></g><path d="M354.667,305.8a18.4,18.4,0,0,1,4.883-5.577.483.483,0,0,0,.2-.27c2.758-2.21,10.144-8.59,6.423-10.812-3.685-2.2-6.352,6.847-7.22,10.3a19.065,19.065,0,0,0-5.07,5.738c.906-3.7,2.658-12.57-1.5-12.113-4.661.513-.251,11,.786,13.32a36.538,36.538,0,0,0-2.479,5.447c-.169.466-.336.957-.5,1.466,0-4.085-.462-12.158-4.205-10.843-4.322,1.519,1.941,10.346,3.666,12.647a58.261,58.261,0,0,0-1.761,9.638c-.884-3.763-3.321-12.3-6.791-10.036-3.885,2.537,4.564,9.768,6.659,11.475a85.039,85.039,0,0,0-.242,8.992c-1.37-3.473-5.131-11.934-8.288-9.122-3.485,3.1,6.075,9.052,8.328,10.382.092,2.522.282,5.211.6,8.08-2.4-2.739-8.942-9.63-10.982-5.87-2.158,3.978,8.127,6.308,11.1,6.89.341,2.913.8,6,1.405,9.277-1.843-2.167-9.261-10.473-11.458-6.422-2.291,4.224,9.453,6.591,11.565,6.979q.593,3.147,1.359,6.52a.49.49,0,0,0,.587.368.416.416,0,0,0,.079-.026.489.489,0,0,0,.289-.561q-.772-3.376-1.357-6.512c2.4-.239,14.156-1.633,11.992-5.854-2.106-4.106-10.107,3.439-12.081,5.394-.6-3.224-1.05-6.259-1.389-9.123,2.281-.224,14.227-1.609,12.047-5.859-2.113-4.12-10.161,3.489-12.1,5.413-.363-3.164-.58-6.112-.677-8.853,2.55-.13,14.135-.961,12.2-5.246-1.867-4.135-9.982,2.692-12.218,4.684a84.873,84.873,0,0,1,.221-9.461c2.563.128,14.152.462,12.659-3.992-1.437-4.29-10.153,1.639-12.607,3.416a58.128,58.128,0,0,1,1.819-10.338c2.731.134,14.049.428,12.58-3.978-1.387-4.158-9.613,1.263-12.363,3.219.243-.819.494-1.589.752-2.3a35.07,35.07,0,0,1,2.525-5.529c2.529.09,14.178.268,12.618-4.173C365.31,298.567,357.609,303.667,354.667,305.8Z" transform="translate(-322.668 -283.478)" fill="#1d262d"/><g transform="translate(9.571 63.348)"><path d="M339.692,377.994h21.777a2.7,2.7,0,0,0,2.692-2.473l2.777-28.534H334.223L337,375.521A2.7,2.7,0,0,0,339.692,377.994Z" transform="translate(-332.232 -346.987)" fill="url(#j)"/><rect width="36.697" height="5.547" rx="1.177" transform="translate(36.697 5.547) rotate(180)" fill="url(#j)"/></g></g></g></svg>