<svg xmlns="http://www.w3.org/2000/svg" xmlns:xlink="http://www.w3.org/1999/xlink" width="54.229" height="54.229" viewBox="0 0 54.229 54.229"><defs><linearGradient id="a" x1="0.096" y1="0.844" x2="1.336" y2="-0.212" gradientUnits="objectBoundingBox"><stop offset="0.001" stop-color="#fbe18a"/><stop offset="0.209" stop-color="#fcbb45"/><stop offset="0.376" stop-color="#f75274"/><stop offset="0.524" stop-color="#d53692"/><stop offset="0.739" stop-color="#8f39ce"/><stop offset="1" stop-color="#5b4fe9"/></linearGradient></defs><g transform="translate(-213.403 -462.981)"><circle cx="23.75" cy="23.75" r="23.75" transform="translate(216.747 466.116)" fill="#fff"/><path d="M240.517,517.21A27.115,27.115,0,1,1,267.632,490.1,27.146,27.146,0,0,1,240.517,517.21Zm9.143-38.116a2.007,2.007,0,1,0,2.007,2.007A2.007,2.007,0,0,0,249.66,479.094Zm-8.92,2.573a8.428,8.428,0,1,0,8.428,8.429A8.438,8.438,0,0,0,240.74,481.667Zm0,13.828a5.4,5.4,0,1,1,5.4-5.4A5.405,5.405,0,0,1,240.74,495.495Zm17.007-12.4a10.281,10.281,0,0,0-10.281-10.28H233.9a10.281,10.281,0,0,0-10.28,10.28V496.66a10.281,10.281,0,0,0,10.28,10.28h13.568a10.281,10.281,0,0,0,10.281-10.28Zm-3.22,13.569a7.06,7.06,0,0,1-7.061,7.06H233.9a7.06,7.06,0,0,1-7.06-7.06V483.091a7.06,7.06,0,0,1,7.06-7.06h13.568a7.06,7.06,0,0,1,7.061,7.06Z" fill="url(#a)"/></g></svg>