<svg xmlns="http://www.w3.org/2000/svg" xmlns:xlink="http://www.w3.org/1999/xlink" width="86" height="86" viewBox="0 0 86 86"><defs><filter id="a" x="0" y="0" width="86" height="86" filterUnits="userSpaceOnUse"><feOffset dy="3" input="SourceAlpha"/><feGaussianBlur stdDeviation="3" result="b"/><feFlood flood-opacity="0.161"/><feComposite operator="in" in2="b"/><feComposite in="SourceGraphic"/></filter><filter id="c" x="5" y="5" width="76" height="76" filterUnits="userSpaceOnUse"><feOffset dy="3" input="SourceAlpha"/><feGaussianBlur stdDeviation="3" result="d"/><feFlood flood-opacity="0.161"/><feComposite operator="in" in2="d"/><feComposite in="SourceGraphic"/></filter><filter id="e" x="22.818" y="20.022" width="24.806" height="45.225" filterUnits="userSpaceOnUse"><feOffset dy="3" input="SourceAlpha"/><feGaussianBlur stdDeviation="3" result="f"/><feFlood flood-opacity="0.161"/><feComposite operator="in" in2="f"/><feComposite in="SourceGraphic"/></filter><filter id="g" x="37.792" y="20.022" width="24.806" height="45.225" filterUnits="userSpaceOnUse"><feOffset dy="3" input="SourceAlpha"/><feGaussianBlur stdDeviation="3" result="h"/><feFlood flood-opacity="0.161"/><feComposite operator="in" in2="h"/><feComposite in="SourceGraphic"/></filter></defs><g transform="translate(-178.546 -735.546)"><g transform="translate(188 742)"><g transform="matrix(1, 0, 0, 1, -9.45, -6.45)" filter="url(#a)"><circle cx="34" cy="34" r="34" transform="translate(9 6)" fill="#652079"/></g><g transform="matrix(1, 0, 0, 1, -9.45, -6.45)" filter="url(#c)" style="mix-blend-mode:color-dodge;isolation:isolate"><circle cx="29" cy="29" r="29" transform="translate(14 11)" fill="#652079" opacity="0.29"/></g></g><g transform="translate(210.364 761.568)"><g transform="matrix(1, 0, 0, 1, -31.82, -26.02)" filter="url(#e)"><path d="M15.117,33.975H9.689A.684.684,0,0,1,9,33.294V7.431a.684.684,0,0,1,.689-.681h5.428a.684.684,0,0,1,.689.681V33.294A.684.684,0,0,1,15.117,33.975Z" transform="translate(22.82 19.27)" fill="#fff"/></g><g transform="matrix(1, 0, 0, 1, -31.82, -26.02)" filter="url(#g)"><path d="M27.492,33.975H22.064a.684.684,0,0,1-.689-.681V7.431a.684.684,0,0,1,.689-.681h5.428a.684.684,0,0,1,.689.681V33.294A.684.684,0,0,1,27.492,33.975Z" transform="translate(25.42 19.27)" fill="#fff"/></g></g></g></svg>