<svg xmlns="http://www.w3.org/2000/svg" xmlns:xlink="http://www.w3.org/1999/xlink" width="86" height="86" viewBox="0 0 86 86"><defs><filter id="a" x="0" y="0" width="86" height="86" filterUnits="userSpaceOnUse"><feOffset dy="3" input="SourceAlpha"/><feGaussianBlur stdDeviation="3" result="b"/><feFlood flood-opacity="0.161"/><feComposite operator="in" in2="b"/><feComposite in="SourceGraphic"/></filter><filter id="c" x="5" y="5" width="76" height="76" filterUnits="userSpaceOnUse"><feOffset dy="3" input="SourceAlpha"/><feGaussianBlur stdDeviation="3" result="d"/><feFlood flood-opacity="0.161"/><feComposite operator="in" in2="d"/><feComposite in="SourceGraphic"/></filter><filter id="e" x="22.818" y="19.446" width="43.057" height="46.639" filterUnits="userSpaceOnUse"><feOffset dy="3" input="SourceAlpha"/><feGaussianBlur stdDeviation="3" result="f"/><feFlood flood-opacity="0.161"/><feComposite operator="in" in2="f"/><feComposite in="SourceGraphic"/></filter></defs><g transform="translate(-178.546 -735.546)"><g transform="translate(188 742)"><g transform="matrix(1, 0, 0, 1, -9.45, -6.45)" filter="url(#a)"><circle cx="34" cy="34" r="34" transform="translate(9 6)" fill="#652079"/></g><g transform="matrix(1, 0, 0, 1, -9.45, -6.45)" filter="url(#c)" style="mix-blend-mode:color-dodge;isolation:isolate"><circle cx="29" cy="29" r="29" transform="translate(14 11)" fill="#652079" opacity="0.29"/></g></g><g transform="matrix(1, 0, 0, 1, 178.55, 735.55)" filter="url(#e)"><path d="M23.738,12.009,4.05.37A2.67,2.67,0,0,0,0,2.68V25.953a2.682,2.682,0,0,0,4.05,2.31L23.738,16.629a2.682,2.682,0,0,0,0-4.62Z" transform="translate(31.82 25.44)" fill="#fff"/></g></g></svg>