<svg xmlns="http://www.w3.org/2000/svg" xmlns:xlink="http://www.w3.org/1999/xlink" width="54" height="54" viewBox="0 0 54 54"><defs><filter id="a" x="0" y="0" width="54" height="54" filterUnits="userSpaceOnUse"><feOffset dy="3" input="SourceAlpha"/><feGaussianBlur stdDeviation="3" result="b"/><feFlood flood-opacity="0.161"/><feComposite operator="in" in2="b"/><feComposite in="SourceGraphic"/></filter><filter id="c" x="3" y="3" width="48" height="48" filterUnits="userSpaceOnUse"><feOffset dy="3" input="SourceAlpha"/><feGaussianBlur stdDeviation="3" result="d"/><feFlood flood-opacity="0.161"/><feComposite operator="in" in2="d"/><feComposite in="SourceGraphic"/></filter><filter id="e" x="12.111" y="10.638" width="30.472" height="32.255" filterUnits="userSpaceOnUse"><feOffset dy="3" input="SourceAlpha"/><feGaussianBlur stdDeviation="3" result="f"/><feFlood flood-opacity="0.161"/><feComposite operator="in" in2="f"/><feComposite in="SourceGraphic"/></filter></defs><g transform="translate(-294.668 -194.668)"><g transform="matrix(1, 0, 0, 1, 294.67, 194.67)" filter="url(#a)"><circle cx="18" cy="18" r="18" transform="translate(9 6)" fill="#652079"/></g><g transform="matrix(1, 0, 0, 1, 294.67, 194.67)" filter="url(#c)" style="mix-blend-mode:color-dodge;isolation:isolate"><circle cx="15" cy="15" r="15" transform="translate(12 9)" fill="#652079" opacity="0.29"/></g><g transform="matrix(1, 0, 0, 1, 294.67, 194.67)" filter="url(#e)"><path d="M11.815,5.979,2.016.185A1.329,1.329,0,0,0,0,1.335V12.919a1.335,1.335,0,0,0,2.016,1.15l9.8-5.791a1.335,1.335,0,0,0,0-2.3Z" transform="translate(21.11 16.64)" fill="#fff"/></g></g></svg>