<svg xmlns="http://www.w3.org/2000/svg" xmlns:xlink="http://www.w3.org/1999/xlink" width="66" height="66" viewBox="0 0 66 66"><defs><filter id="a" x="0" y="0" width="66" height="66" filterUnits="userSpaceOnUse"><feOffset dy="3" input="SourceAlpha"/><feGaussianBlur stdDeviation="3" result="b"/><feFlood flood-opacity="0.161"/><feComposite operator="in" in2="b"/><feComposite in="SourceGraphic"/></filter><filter id="c" x="3" y="3" width="60" height="60" filterUnits="userSpaceOnUse"><feOffset dy="3" input="SourceAlpha"/><feGaussianBlur stdDeviation="3" result="d"/><feFlood flood-opacity="0.161"/><feComposite operator="in" in2="d"/><feComposite in="SourceGraphic"/></filter><filter id="e" x="16" y="14" width="34.941" height="37.363" filterUnits="userSpaceOnUse"><feOffset dy="3" input="SourceAlpha"/><feGaussianBlur stdDeviation="3" result="f"/><feFlood flood-opacity="0.161"/><feComposite operator="in" in2="f"/><feComposite in="SourceGraphic"/></filter></defs><g transform="translate(-295 -195)"><g transform="matrix(1, 0, 0, 1, 295, 195)" filter="url(#a)"><circle cx="24" cy="24" r="24" transform="translate(9 6)" fill="#652079"/></g><g transform="matrix(1, 0, 0, 1, 295, 195)" filter="url(#c)" style="mix-blend-mode:color-dodge;isolation:isolate"><circle cx="21" cy="21" r="21" transform="translate(12 9)" fill="#652079" opacity="0.29"/></g><g transform="matrix(1, 0, 0, 1, 295, 195)" filter="url(#e)"><path d="M16.049,8.12,2.738.251A1.805,1.805,0,0,0,0,1.812V17.548A1.814,1.814,0,0,0,2.738,19.11l13.311-7.866a1.813,1.813,0,0,0,0-3.124Z" transform="translate(25 20)" fill="#fff"/></g></g></svg>