<svg xmlns="http://www.w3.org/2000/svg" xmlns:xlink="http://www.w3.org/1999/xlink" width="86" height="86" viewBox="0 0 86 86"><defs><filter id="a" x="0" y="0" width="86" height="86" filterUnits="userSpaceOnUse"><feOffset dy="3" input="SourceAlpha"/><feGaussianBlur stdDeviation="3" result="b"/><feFlood flood-opacity="0.161"/><feComposite operator="in" in2="b"/><feComposite in="SourceGraphic"/></filter><filter id="c" x="5" y="5" width="76" height="76" filterUnits="userSpaceOnUse"><feOffset dy="3" input="SourceAlpha"/><feGaussianBlur stdDeviation="3" result="d"/><feFlood flood-opacity="0.161"/><feComposite operator="in" in2="d"/><feComposite in="SourceGraphic"/></filter></defs><g transform="translate(-178.546 -735.546)"><g transform="translate(188 742)"><g transform="matrix(1, 0, 0, 1, -9.45, -6.45)" filter="url(#a)"><circle cx="34" cy="34" r="34" transform="translate(9 6)" fill="#652079"/></g><g transform="matrix(1, 0, 0, 1, -9.45, -6.45)" filter="url(#c)" style="mix-blend-mode:color-dodge;isolation:isolate"><circle cx="29" cy="29" r="29" transform="translate(14 11)" fill="#652079" opacity="0.29"/></g></g><path d="M14.139,10.6a4.82,4.82,0,1,1,4.82,4.82,4.82,4.82,0,0,1-4.82-4.82Zm-11.568,0a4.82,4.82,0,1,1,4.82,4.82A4.82,4.82,0,0,1,2.571,10.6Zm23.136,9.64V17.352a1.934,1.934,0,0,0-1.928-1.928H4.5a1.934,1.934,0,0,0-1.928,1.928v9.64A1.934,1.934,0,0,0,4.5,28.921h19.28a1.934,1.934,0,0,0,1.928-1.928V24.1l7.712,4.82v-13.5l-7.712,4.82Zm-3.856,4.82H6.427V19.28H21.851Z" transform="translate(203.975 757.762)" fill="#fff"/><g transform="translate(86.146 546.145)"><path d="M-21.26-71A34.831,34.831,0,0,1,11.867-46.932,34.831,34.831,0,0,1-.786-7.99a34.831,34.831,0,0,1-40.946,0l4.037-5.556a27.963,27.963,0,0,0,32.872,0A27.963,27.963,0,0,0,5.335-44.81,27.963,27.963,0,0,0-21.26-64.132Z" transform="translate(157.099 265.57)" fill="#d51616"/></g></g></svg>