<svg xmlns="http://www.w3.org/2000/svg" xmlns:xlink="http://www.w3.org/1999/xlink" width="353" height="61" viewBox="0 0 353 61"><defs><filter id="a" x="0" y="0" width="353" height="61" filterUnits="userSpaceOnUse"><feOffset dy="3" input="SourceAlpha"/><feGaussianBlur stdDeviation="3" result="b"/><feFlood flood-opacity="0.161"/><feComposite operator="in" in2="b"/><feComposite in="SourceGraphic"/></filter></defs><g transform="translate(9 5)"><g transform="matrix(1, 0, 0, 1, -9, -5)" filter="url(#a)"><rect width="335" height="43" rx="21.5" transform="translate(9 6)" fill="#895798"/></g><g transform="translate(28 13)"><path d="M19.375,18.459l-4.186-4.225a5.966,5.966,0,1,0-.905.917l4.159,4.2a.644.644,0,0,0,.909.024A.648.648,0,0,0,19.375,18.459ZM10.5,15.2a4.711,4.711,0,1,1,3.332-1.38A4.682,4.682,0,0,1,10.5,15.2Z" transform="translate(-4.5 -3.493)" fill="#e8e8e8"/><text transform="translate(33 14)" fill="#d2aedc" font-size="15" font-family="ArialMT, Arial"><tspan x="0" y="0">Search</tspan></text></g></g></svg>