<svg xmlns="http://www.w3.org/2000/svg" width="54.585" height="54.585" viewBox="0 0 54.585 54.585"><g transform="translate(-49.784 -397.779)"><path d="M77.076,452.364a27.293,27.293,0,1,1,27.293-27.293A27.324,27.324,0,0,1,77.076,452.364Z" fill="#fed101"/><path d="M59.254,434.5v-.56a1.481,1.481,0,0,1,.844-.566,9.558,9.558,0,0,0,6.386-4.914c1.246-2.068,1.046-2.541-1.251-3.354-.131-.047-.266-.084-.4-.137a4.937,4.937,0,0,1-1.4-.778c-1.029-.894-.42-2.182.793-2.475.886-.213,1.658.357,2.519.465.575.071.805-.123.734-.735a29.4,29.4,0,0,1-.1-4.748,8.035,8.035,0,0,1,4.143-6.812,10.46,10.46,0,0,1,11.215-.034,8,8,0,0,1,4.124,6.156,27.4,27.4,0,0,1-.014,5.373c-.061.778.1.921.867.741.955-.224,1.755-.716,2.747-.28a1.512,1.512,0,0,1,.98,1.315,1.457,1.457,0,0,1-.541,1.024,5.591,5.591,0,0,1-1.613.846c-.431.175-.88.31-1.3.508-.868.406-1.118.943-.711,1.8,1.4,2.971,3.471,5.227,6.812,6.011a1.6,1.6,0,0,1,.982.592v.56a2.592,2.592,0,0,1-1.526,1.254,7.049,7.049,0,0,1-2.011.569,1.531,1.531,0,0,0-1.626,1.493c-.141.959-.43,1.1-1.407,1.016-.232-.019-.462-.061-.691-.1a6.224,6.224,0,0,0-5.287,1.125,11.547,11.547,0,0,1-.981.671,7.331,7.331,0,0,1-8.233.306c-.764-.445-1.488-.959-2.229-1.443a4.915,4.915,0,0,0-2.009-.736,12.885,12.885,0,0,0-3.4.209c-.581.064-1.143-.1-1.175-.7-.079-1.448-.967-1.8-2.185-1.936a6.2,6.2,0,0,1-1.662-.516A2.442,2.442,0,0,1,59.254,434.5Z" fill="#fff"/></g></svg>