<svg xmlns="http://www.w3.org/2000/svg" width="26.293" height="17.087" viewBox="0 0 26.293 17.087"><g transform="translate(-2.215 -7.748)"><path d="M21.812,20.895c-.656-.234-1.727-.246-2.2-.427a3.111,3.111,0,0,1-1.019-.474,6.3,6.3,0,0,1-.17-1.669A2.7,2.7,0,0,0,19,17.5a9.111,9.111,0,0,0,.281-1.61s.386.164.539-.609c.129-.668.375-1.019.31-1.511s-.34-.375-.34-.375a4.385,4.385,0,0,0,.34-2.19,3.5,3.5,0,0,0-3.783-3.461,3.516,3.516,0,0,0-3.789,3.461,4.45,4.45,0,0,0,.334,2.19s-.275-.117-.34.375.176.843.31,1.511c.152.779.539.609.539.609a9.2,9.2,0,0,0,.281,1.61,2.7,2.7,0,0,0,.58.82,6.3,6.3,0,0,1-.17,1.669,2.994,2.994,0,0,1-1.019.468c-.468.182-1.54.2-2.2.439a4.133,4.133,0,0,0-2.682,3.935h16.3A4.125,4.125,0,0,0,21.812,20.895Z" transform="translate(-0.999)" fill="#fff"/><path d="M8.568,18.621a3.975,3.975,0,0,0,1.956-.545c-.908-1.376-.416-2.981-.6-4.48a2.471,2.471,0,0,0-2.735-2.389H7.163A2.478,2.478,0,0,0,4.452,13.6c-.187,1.493.334,3.279-.6,4.48a3.679,3.679,0,0,0,1.962.486h0a2.966,2.966,0,0,1-.059.984,1.479,1.479,0,0,1-.7.322,13.587,13.587,0,0,0-1.517.422,2.466,2.466,0,0,0-1.323,2.178h4.7a4.207,4.207,0,0,1,1.874-1.745,3.932,3.932,0,0,1,1.446-.3s.223-.351-.509-.486A4.992,4.992,0,0,1,8.6,19.541C8.492,19.412,8.568,18.621,8.568,18.621Z" transform="translate(0 -0.578)" fill="#fff"/><path d="M25.764,18.621a3.975,3.975,0,0,1-1.956-.545c.908-1.376.416-2.981.6-4.48a2.471,2.471,0,0,1,2.735-2.389h.023A2.478,2.478,0,0,1,29.88,13.6c.187,1.493-.334,3.279.6,4.48a3.679,3.679,0,0,1-1.962.486h0a2.966,2.966,0,0,0,.059.984,1.479,1.479,0,0,0,.7.322,13.587,13.587,0,0,1,1.517.422,2.466,2.466,0,0,1,1.323,2.178h-4.7a4.207,4.207,0,0,0-1.874-1.745,3.932,3.932,0,0,0-1.446-.3s-.223-.351.509-.486a4.992,4.992,0,0,0,1.124-.392C25.84,19.412,25.764,18.621,25.764,18.621Z" transform="translate(-3.61 -0.578)" fill="#fff"/></g></svg>