<svg xmlns="http://www.w3.org/2000/svg" width="33.8" height="30.039" viewBox="0 0 33.8 30.039"><defs><style>.a{fill:#fff;mix-blend-mode:color-dodge;isolation:isolate;}</style></defs><path class="a" d="M23.625,4.883l5.293,5.293a.574.574,0,0,1,0,.81L16.1,23.8l-5.446.6a1.141,1.141,0,0,1-1.262-1.262L10,17.7,22.815,4.883A.574.574,0,0,1,23.625,4.883ZM33.131,3.54,30.268.676a2.3,2.3,0,0,0-3.239,0L24.951,2.753a.574.574,0,0,0,0,.81l5.293,5.293a.574.574,0,0,0,.81,0l2.077-2.077a2.3,2.3,0,0,0,0-3.239Zm-10.6,16.777V26.29H3.756V7.512H17.24a.722.722,0,0,0,.5-.205L20.087,4.96a.7.7,0,0,0-.5-1.2H2.817A2.817,2.817,0,0,0,0,6.573V27.229a2.817,2.817,0,0,0,2.817,2.817H23.472a2.817,2.817,0,0,0,2.817-2.817v-9.26a.705.705,0,0,0-1.2-.5l-2.347,2.347A.722.722,0,0,0,22.534,20.317Z" transform="translate(0 -0.007)"/></svg>