<svg xmlns="http://www.w3.org/2000/svg" width="22.62" height="16.965" viewBox="0 0 22.62 16.965"><path d="M11.053,9.318a3.534,3.534,0,1,1,3.534,3.534,3.534,3.534,0,0,1-3.534-3.534Zm-8.482,0a3.534,3.534,0,1,1,3.534,3.534A3.534,3.534,0,0,1,2.571,9.318Zm16.965,7.069V14.267a1.418,1.418,0,0,0-1.414-1.414H3.984a1.418,1.418,0,0,0-1.414,1.414v7.069a1.418,1.418,0,0,0,1.414,1.414H18.122a1.418,1.418,0,0,0,1.414-1.414V19.215l5.655,3.534v-9.9Zm-2.827,3.534H5.4V15.68h11.31Z" transform="translate(-2.571 -5.784)" fill="#fff"/></svg>