<svg xmlns="http://www.w3.org/2000/svg" xmlns:xlink="http://www.w3.org/1999/xlink" width="310" height="619.164" viewBox="0 0 310 619.164"><defs><linearGradient id="a" x1="0.5" x2="0.5" y2="0.997" gradientUnits="objectBoundingBox"><stop offset="0" stop-color="#222"/><stop offset="1" stop-color="#2a2a2a"/></linearGradient><linearGradient id="b" x1="-0.472" y1="0.5" x2="1.351" y2="0.5" gradientUnits="objectBoundingBox"><stop offset="0" stop-color="#fff" stop-opacity="0"/><stop offset="1" stop-color="#bbb"/></linearGradient><linearGradient id="c" x1="-0.557" y1="0.5" x2="1" y2="0.5" gradientUnits="objectBoundingBox"><stop offset="0" stop-color="#e2e2e2"/><stop offset="1" stop-color="#838383" stop-opacity="0"/></linearGradient><linearGradient id="d" y1="0.5" x2="1" y2="0.5" gradientUnits="objectBoundingBox"><stop offset="0" stop-color="#fff" stop-opacity="0"/><stop offset="1" stop-color="#c8c8c8"/></linearGradient><linearGradient id="e" x1="-0.767" y1="0.5" x2="1" y2="0.5" gradientUnits="objectBoundingBox"><stop offset="0" stop-color="#d0d0d0" stop-opacity="0.565"/><stop offset="1" stop-opacity="0"/></linearGradient></defs><g transform="translate(-725.441 1616)"><g transform="translate(827.751 -1307.516)"><rect width="106" height="2" rx="1" transform="translate(-0.31 0.098)" fill="#fff"/></g><g transform="translate(725.665 -1616)"><g transform="translate(0)"><g transform="translate(0 83.455)"><rect width="4" height="24" rx="2" transform="translate(-0.224 0.128)" fill="#fff"/><rect width="4" height="44" rx="2" transform="translate(-0.224 45.128)" fill="#fff"/><rect width="4" height="45" rx="2" transform="translate(-0.224 101.128)" fill="#fff"/><rect width="4" height="73" rx="2" transform="translate(305.776 59.128)" fill="#fff"/></g><rect width="305.289" height="619.164" rx="42" transform="translate(2.155)" fill="#fff"/><g transform="translate(135.242 22.897)"><rect width="37.684" height="4.77" rx="2.385" opacity="0.16" fill="url(#a)"/></g><g transform="translate(181.99 20.035)" opacity="0.16"><circle cx="5.247" cy="5.247" r="5.247" fill="#202022"/><path d="M2.862,3.417A2.862,2.862,0,0,0,5.724.555c0-1.581-1.281.716-2.862.716S0-1.025,0,.555A2.862,2.862,0,0,0,2.862,3.417Z" transform="translate(2.385 4.77)" fill="#133456"/><path d="M2.862,3.578c1.581,0,2.862.627,2.862-.954A2.668,2.668,0,0,0,2.862,0,2.668,2.668,0,0,0,0,2.624C0,4.2,1.281,3.578,2.862,3.578Z" transform="translate(2.385 2.862)" fill="#2771bd"/><path d="M.142,5.325a16.3,16.3,0,0,0,3.1-.457c.193-.186-.1-1.035-.477-1.5C2.25,2.721,3.338.982,3.242.3S2.234.3,2.05.3c-.659,0-.716,2.358-.716,3.062S-.517,5.325.142,5.325Z" transform="translate(3.436 2.862)"/></g><g transform="translate(2.155 49.609)" opacity="0.618"><rect width="6.201" height="6.201" transform="translate(299.088)" fill="url(#b)"/><rect width="6.678" height="6.201" fill="url(#c)"/><g transform="translate(0 504.204)"><rect width="7.155" height="6.201" transform="translate(298.134)" fill="url(#d)"/><rect width="6.678" height="6.201" fill="url(#e)"/></g></g></g></g><path d="M0,27.19A27.19,27.19,0,0,1,27.19,0H57.255a1.908,1.908,0,0,1,1.908,1.908V6.2a14.31,14.31,0,0,0,14.31,14.31H195.1A14.31,14.31,0,0,0,209.409,6.2V1.908A1.908,1.908,0,0,1,211.317,0h29.813a27.19,27.19,0,0,1,27.19,27.19V553.814A27.19,27.19,0,0,1,241.131,581H27.19A27.19,27.19,0,0,1,0,553.814Z" transform="translate(745.922 -1596.919)" fill="#fff" stroke="#707070" stroke-width="1"/></g></svg>