<svg xmlns="http://www.w3.org/2000/svg" width="311.001" height="620.165" viewBox="0 0 311.001 620.165"><g transform="translate(-724.94 1616.501)"><path d="M8343.109,3846.746H8121.82a41.963,41.963,0,0,1-42-42V3457.128a2.057,2.057,0,0,1-.381.036,2,2,0,0,1-2-2v-41a2,2,0,0,1,2-2,2.043,2.043,0,0,1,.381.036v-12.072a2.065,2.065,0,0,1-.381.036,2,2,0,0,1-2-2v-40a2,2,0,0,1,2-2,2.069,2.069,0,0,1,.381.036v-21.073a1.926,1.926,0,0,1-.381.038,2,2,0,0,1-2-2v-20a2,2,0,0,1,2-2,2.047,2.047,0,0,1,.381.036v-41.617a41.964,41.964,0,0,1,42-42h221.29a41.966,41.966,0,0,1,42,42v100.609a1.932,1.932,0,0,1,.333-.027,2,2,0,0,1,2,2v69a2,2,0,0,1-2,2,2.124,2.124,0,0,1-.333-.027v361.611a41.966,41.966,0,0,1-42,42Zm-218-600.083a27.221,27.221,0,0,0-27.19,27.19v526.624a27.221,27.221,0,0,0,27.19,27.19h213.941a27.221,27.221,0,0,0,27.189-27.19V3273.853a27.221,27.221,0,0,0-27.189-27.19H8309.24a1.909,1.909,0,0,0-1.907,1.907v4.294a14.309,14.309,0,0,1-14.312,14.31H8171.4a14.31,14.31,0,0,1-14.31-14.31v-4.294a1.91,1.91,0,0,0-1.909-1.907Z" transform="translate(-7352 -4843.582)" fill="#fff" stroke="rgba(0,0,0,0)" stroke-miterlimit="10" stroke-width="1"/></g></svg>