<svg xmlns="http://www.w3.org/2000/svg" xmlns:xlink="http://www.w3.org/1999/xlink" width="72" height="72" viewBox="0 0 72 72"><defs><filter id="a" x="0" y="0" width="72" height="72" filterUnits="userSpaceOnUse"><feOffset dy="3" input="SourceAlpha"/><feGaussianBlur stdDeviation="3" result="b"/><feFlood flood-opacity="0.161"/><feComposite operator="in" in2="b"/><feComposite in="SourceGraphic"/></filter><filter id="c" x="5" y="5" width="62" height="62" filterUnits="userSpaceOnUse"><feOffset dy="3" input="SourceAlpha"/><feGaussianBlur stdDeviation="3" result="d"/><feFlood flood-opacity="0.161"/><feComposite operator="in" in2="d"/><feComposite in="SourceGraphic"/></filter><filter id="e" x="18.018" y="15.773" width="37.021" height="39.739" filterUnits="userSpaceOnUse"><feOffset dy="3" input="SourceAlpha"/><feGaussianBlur stdDeviation="3" result="f"/><feFlood flood-opacity="0.161"/><feComposite operator="in" in2="f"/><feComposite in="SourceGraphic"/></filter></defs><g transform="translate(8.625 5.625)"><g transform="matrix(1, 0, 0, 1, -8.63, -5.63)" filter="url(#a)"><circle cx="27" cy="27" r="27" transform="translate(9 6)" fill="#652079"/></g><g transform="matrix(1, 0, 0, 1, -8.63, -5.63)" filter="url(#c)" style="mix-blend-mode:color-dodge;isolation:isolate"><circle cx="22" cy="22" r="22" transform="translate(14 11)" fill="#652079" opacity="0.29"/></g><g transform="matrix(1, 0, 0, 1, -8.63, -5.63)" filter="url(#e)"><path d="M18.019,9.117,3.074.281A2.027,2.027,0,0,0,0,2.035V19.7a2.036,2.036,0,0,0,3.074,1.754l14.945-8.831a2.036,2.036,0,0,0,0-3.507Z" transform="translate(27.02 21.77)" fill="#fff"/></g></g></svg>