<svg xmlns="http://www.w3.org/2000/svg" xmlns:xlink="http://www.w3.org/1999/xlink" width="108" height="108" viewBox="0 0 108 108"><defs><filter id="a" x="0" y="0" width="108" height="108" filterUnits="userSpaceOnUse"><feOffset dy="3" input="SourceAlpha"/><feGaussianBlur stdDeviation="3" result="b"/><feFlood flood-opacity="0.161"/><feComposite operator="in" in2="b"/><feComposite in="SourceGraphic"/></filter><filter id="c" x="5" y="6" width="97" height="97" filterUnits="userSpaceOnUse"><feOffset dy="3" input="SourceAlpha"/><feGaussianBlur stdDeviation="3" result="d"/><feFlood flood-opacity="0.161"/><feComposite operator="in" in2="d"/><feComposite in="SourceGraphic"/></filter><filter id="e" x="29.765" y="26.411" width="49.84" height="54.391" filterUnits="userSpaceOnUse"><feOffset dy="3" input="SourceAlpha"/><feGaussianBlur stdDeviation="3" result="f"/><feFlood flood-opacity="0.161"/><feComposite operator="in" in2="f"/><feComposite in="SourceGraphic"/></filter></defs><g transform="translate(9 6)"><g transform="matrix(1, 0, 0, 1, -9, -6)" filter="url(#a)"><circle cx="45" cy="45" r="45" transform="translate(9 6)" fill="#652079"/></g><g transform="matrix(1, 0, 0, 1, -9, -6)" filter="url(#c)" style="mix-blend-mode:color-dodge;isolation:isolate"><circle cx="39.5" cy="39.5" r="39.5" transform="translate(14 12)" fill="#652079" opacity="0.29"/></g><g transform="matrix(1, 0, 0, 1, -9, -6)" filter="url(#e)"><path d="M30.164,15.26,5.146.469A3.393,3.393,0,0,0,0,3.4V32.978a3.409,3.409,0,0,0,5.146,2.935L30.164,21.13a3.408,3.408,0,0,0,0-5.871Z" transform="translate(38.77 32.41)" fill="#fff"/></g></g></svg>