<svg xmlns="http://www.w3.org/2000/svg" xmlns:xlink="http://www.w3.org/1999/xlink" width="67" height="68" viewBox="0 0 67 68"><defs><filter id="a" x="0" y="0" width="67" height="68" filterUnits="userSpaceOnUse"><feOffset dy="3" input="SourceAlpha"/><feGaussianBlur stdDeviation="3" result="b"/><feFlood flood-opacity="0.161"/><feComposite operator="in" in2="b"/><feComposite in="SourceGraphic"/></filter><filter id="c" x="3" y="3" width="61" height="61" filterUnits="userSpaceOnUse"><feOffset dy="3" input="SourceAlpha"/><feGaussianBlur stdDeviation="3" result="d"/><feFlood flood-opacity="0.161"/><feComposite operator="in" in2="d"/><feComposite in="SourceGraphic"/></filter></defs><g transform="translate(8.753 4.888)"><g transform="translate(0 0)"><g transform="translate(0 0.676)"><g transform="matrix(1, 0, 0, 1, -8.75, -5.56)" filter="url(#a)"><ellipse cx="24.5" cy="25" rx="24.5" ry="25" transform="translate(9 6)" fill="#652079"/></g><g transform="matrix(1, 0, 0, 1, -8.75, -5.56)" filter="url(#c)" style="mix-blend-mode:color-dodge;isolation:isolate"><circle cx="21.5" cy="21.5" r="21.5" transform="translate(12 9)" fill="#652079" opacity="0.29"/></g></g><path d="M11.045,9.315a3.531,3.531,0,1,1,3.531,3.531,3.531,3.531,0,0,1-3.531-3.531Zm-8.474,0A3.531,3.531,0,1,1,6.1,12.846,3.531,3.531,0,0,1,2.571,9.315Zm16.949,7.062V14.258a1.417,1.417,0,0,0-1.412-1.412H3.983a1.417,1.417,0,0,0-1.412,1.412V21.32a1.417,1.417,0,0,0,1.412,1.412H18.107a1.417,1.417,0,0,0,1.412-1.412V19.2l5.65,3.531V12.846l-5.65,3.531Zm-2.825,3.531H5.4V15.671h11.3Z" transform="translate(11.083 10.941)" fill="#fff"/><g transform="translate(9.966)"><path d="M-26.735-71A25.516,25.516,0,0,1-2.468-53.369a25.516,25.516,0,0,1-9.269,28.527,25.516,25.516,0,0,1-30,0l2.957-4.07a20.484,20.484,0,0,0,24.081,0,20.484,20.484,0,0,0,7.441-22.9A20.484,20.484,0,0,0-26.735-65.969Z" transform="translate(41.733 71)" fill="#d51616"/></g></g></g></svg>