<svg xmlns="http://www.w3.org/2000/svg" xmlns:xlink="http://www.w3.org/1999/xlink" width="696.692" height="626.439" xmlns:v="https://vecta.io/nano"><defs><linearGradient id="A" x1=".5" y1=".494" x2=".5" y2="1.933"><stop offset=".062" stop-color="#e38204"/><stop offset="1" stop-color="#e35802"/></linearGradient><linearGradient id="B" y1=".256" y2=".954" xlink:href="#A"/><linearGradient id="C" y1=".846" y2="3.761" xlink:href="#A"/><linearGradient id="D" x1="0" y1=".5" x2="1" y2=".5" xlink:href="#A"/><linearGradient id="E" x1=".331" y1=".11" x2=".6" y2=".574"><stop offset="0" stop-color="#28c5f4"/><stop offset="1" stop-color="#0077ec"/></linearGradient><linearGradient id="F" x1=".058" y1=".057" x2=".692" y2=".694"><stop offset="0" stop-color="#008bec"/><stop offset="1" stop-color="#0077ec"/></linearGradient><linearGradient id="G" x1=".803" y1=".201" x2=".4" y2=".695" xlink:href="#E"/><linearGradient id="H" x1="0" y1=".5" x2="1" y2=".5" xlink:href="#F"/><path id="I" d="M425.88 355.668h225.595v32.353H425.88z"/><path id="J" d="M495.44 429.263a3.72 3.72 0 0 1-3.716 3.718 3.72 3.72 0 0 1-3.718-3.716 3.72 3.72 0 0 1 3.716-3.718 3.72 3.72 0 0 1 3.718 3.716z"/><path id="K" d="M533 429.263c0 2.052-1.664 3.716-3.716 3.716s-3.716-1.664-3.716-3.716 1.664-3.716 3.716-3.716c.986 0 1.93.392 2.628 1.088s1.088 1.642 1.088 2.628z"/><path id="L" d="M514.218 429.263c0 2.052-1.664 3.716-3.716 3.716s-3.716-1.664-3.716-3.716 1.664-3.716 3.716-3.716a3.72 3.72 0 0 1 3.716 3.716z"/><path id="M" d="M495.44 373.594a3.72 3.72 0 0 1-3.717 3.716 3.72 3.72 0 0 1-3.717-3.717 3.72 3.72 0 0 1 3.716-3.717c.986 0 1.932.39 2.63 1.09s1.09 1.643 1.09 2.63z"/><path id="N" d="M533 373.594c-.001 2.052-1.665 3.715-3.717 3.714s-3.715-1.665-3.715-3.717 1.664-3.715 3.716-3.715c.986 0 1.932.39 2.63 1.09s1.088 1.643 1.087 2.63z"/><path id="O" d="M514.218 373.594c-.001 2.052-1.665 3.715-3.717 3.714s-3.715-1.665-3.715-3.717 1.664-3.715 3.716-3.715c.986 0 1.93.392 2.628 1.09s1.088 1.643 1.088 2.63z"/><path id="P" d="M331.23 668.01c.25.333 1.835 29.367 1.835 29.367s14.016 1 14.016 0 1.085-26.2 1.085-26.2z"/></defs><g transform="translate(-95 -87)"><g fill="#2b1e65"><path d="M280.243 279.2a5.72 5.72 0 1 0 2.198-3.786 5.72 5.72 0 0 0-2.198 3.787zm-23.563-34.603a11.45 11.45 0 1 0 12.869-9.822 11.45 11.45 0 0 0-12.869 9.822z"/><circle cx="55.715" cy="55.715" r="55.715" transform="matrix(.780409 -.62527 .62527 .780409 95 156.675)"/><circle cx="33.002" cy="33.002" r="33.002" transform="matrix(.01377 -.999905 .999905 .01377 188.397 235.354)"/></g><g fill="#fff"><path d="M224.98 182.626c-1.05-1.65-2.382-3.105-3.93-4.3a17.38 17.38 0 0 0-20.836-.291v.006l-51.07-40.1c-1.54-1.21-3.77-.946-4.985.592l-3.67 4.67h.006l-3.216 4.1a2.98 2.98 0 0 0 .508 4.194l.417.325c.622.5 1.414.713 2.2.62s1.504-.496 1.993-1.12l3.216-4.094 2.96 2.325-3.218 4.1a2.99 2.99 0 0 0 .511 4.194l.54.423c.622.5 1.414.713 2.2.62s1.504-.496 1.993-1.12l3.218-4.1 2.987 2.335-3.11 3.97a3.09 3.09 0 0 0 .165 4.121 2.98 2.98 0 0 0 4.431-.3l3.216-4.1 32.84 25.795c-3.35 8.174-.042 17.56 7.693 21.828s17.44 2.058 22.567-5.137c4.086-5.838 4.233-13.568.37-19.557zm-8.237 19.16c-1.897-.16-3.484-1.506-3.95-3.352s.294-3.784 1.89-4.823 3.674-.95 5.175.22c.7.546 1.218 1.292 1.485 2.14l.01.006c.453 1.418.17 2.968-.755 4.134s-2.37 1.794-3.854 1.675z"/><path d="M224.6 202.193c-4.387 6.16-12.254 8.78-19.46 6.48s-12.097-8.995-12.1-16.56c2.805 5.728 7.215 10.78 14.1 11.852 3.36.654 6.84-.137 9.59-2.18 1.484.12 2.93-.51 3.854-1.675s1.208-2.716.755-4.134l-.01-.006a40.12 40.12 0 0 0 3.636-13.343c3.867 6 3.723 13.724-.366 19.565z"/></g><g fill="#dfc9e1"><circle cx="145.597" cy="145.597" r="145.597" transform="matrix(.23 -.973 .973 .23 206.537 577.161)" opacity=".36"/><circle cx="434.106" cy="327.972" r="110.654" opacity=".36"/><circle cx="110.654" cy="110.654" r="110.654" transform="matrix(.161776 -.986827 .986827 .161776 514.339 504.296)" opacity=".36"/></g><path d="M791.692 712.348H198.044" fill="#f4ecf4" stroke="#f4ecf4" stroke-width="2.181"/><g opacity=".36" fill="#dfc9e1"><path d="M472.995 145.764a18.94 18.94 0 0 0-6.288 1.769 19.5 19.5 0 0 0-10.811 20.733v.01l-65.965 30.93a3.99 3.99 0 0 0-1.923 5.294l2.827 6.034h.01l2.48 5.292c.378.804 1.06 1.425 1.897 1.725s1.758.255 2.562-.125l.536-.25a3.35 3.35 0 0 0 1.62-4.455l-2.48-5.292 3.827-1.793 2.478 5.292c.79 1.673 2.787 2.39 4.46 1.6l.7-.327a3.35 3.35 0 0 0 1.62-4.453l-2.48-5.292 3.848-1.814 2.4 5.117a3.47 3.47 0 0 0 4.211 1.917c.9-.31 1.625-.987 1.995-1.863s.35-1.87-.057-2.73L418 197.8l42.428-19.885a19.52 19.52 0 0 0 32-21.9c-3.8-7.045-11.47-11.094-19.423-10.24zm15.042 17.926a5 5 0 0 1-9.228-2.065 5 5 0 0 1 2.828-5.073c.903-.426 1.914-.57 2.9-.408h.01a5.01 5.01 0 0 1 3.5 7.551z"/><path d="M492.42 156.01a19.52 19.52 0 0 1-26.036 26.538c7.158.08 14.448-1.788 19-8.15 2.352-3.037 3.317-6.925 2.656-10.71a5.01 5.01 0 0 0-3.5-7.551h-.01c-3.393-4.658-8.388-8.335-11.538-10.38 7.958-.852 15.64 3.202 19.427 10.253z"/></g><g opacity=".36" fill="#dfc9e1"><path d="M658.417 210.456c-1-.528-2.105-.877-3.235-1.03a10.14 10.14 0 0 0-10.621 5.908v.006l-24.1-3.5-13.375-1.936c-1.13-.166-2.183.617-2.35 1.748l-.5 3.426h.006l-.436 3.006c-.068.458.05.923.327 1.293s.69.615 1.15.68l.3.045a1.74 1.74 0 0 0 1.976-1.472l.436-3 2.173.314-.43 3.003c-.136.952.524 1.834 1.476 1.972l.4.058a1.74 1.74 0 0 0 1.976-1.47l.438-3.006 2.188.312-.417 2.9a1.8 1.8 0 0 0 1.28 2.036c.48.124.988.037 1.4-.238s.686-.712.755-1.202l.436-3 24.1 3.5c.683 5.105 5.083 8.888 10.233 8.797s9.414-4.026 9.917-9.152a10.22 10.22 0 0 0-5.5-10.007zm1.4 12.08a2.6 2.6 0 0 1-2.791-4.335 2.6 2.6 0 0 1 3.428.058h0a2.6 2.6 0 0 1-.641 4.277z"/><path d="M663.915 220.456c-.43 4.4-3.646 8-7.957 8.93s-8.73-1.032-10.93-4.855c3.085 2.08 6.782 3.354 10.576 1.893a7.1 7.1 0 0 0 4.215-3.889 2.6 2.6 0 0 0 .641-4.277h0a23.43 23.43 0 0 0-2.04-7.8 10.22 10.22 0 0 1 5.495 9.999z"/></g><rect width="330.523" height="298.29" rx="8.662" fill="#dfc9e1" x="373.416" y="261.275"/><g fill="#fff"><use xlink:href="#I"/><use xlink:href="#I" y="57.419"/></g><use xlink:href="#I" y="120.092" fill="#781d83" opacity=".5"/><g fill="#1d262d"><path d="M457.868 429.263c0 1.504-.906 2.86-2.295 3.435s-2.99.257-4.052-.807-1.38-2.664-.803-4.053 1.934-2.293 3.438-2.29a3.72 3.72 0 0 1 3.712 3.716z"/><use xlink:href="#J"/><use xlink:href="#K"/><use xlink:href="#K" x="-56.35"/><use xlink:href="#L"/><use xlink:href="#K" x="56.35"/><use xlink:href="#J" x="56.346"/><use xlink:href="#L" x="56.352"/><path d="M626.92 429.263c0 1.504-.905 2.86-2.294 3.435s-2.988.258-4.05-.806a3.72 3.72 0 0 1-.806-4.05c.574-1.388 1.93-2.295 3.435-2.294a3.72 3.72 0 0 1 3.716 3.716zm-18.784 0c0 1.504-.905 2.86-2.294 3.435s-2.988.257-4.05-.806a3.72 3.72 0 0 1-.805-4.052c.575-1.39 1.932-2.294 3.436-2.293a3.72 3.72 0 0 1 3.715 3.716z"/><use xlink:href="#M"/><use xlink:href="#N"/><use xlink:href="#O"/><use xlink:href="#N" x="56.35"/><use xlink:href="#M" x="56.345"/><use xlink:href="#O" x="56.35"/></g><circle cx="53.192" cy="53.192" r="53.192" transform="matrix(.634 -.773 .773 .634 463.82 273.65)" fill="#652079"/><g fill="none" stroke="#fff" stroke-miterlimit="10" stroke-width="2.273"><path d="M559.065 245.852l-40.773 40.773"/><path d="M559.065 286.625l-40.773-40.773"/></g><g fill="#f7d6b2"><path d="M274.554 485.498l55.113-2.3 2.414-94.3-6.848-19.095-22.83-7.86-15.98-2.955c-9.32 1.778-15.95 10.085-15.618 19.567l5.976 66.732z"/><path d="M296.674 344.26v18.947s4 2.39 13.373 2.39c5.05 0 6.185.872 6.185.872v-10.266z"/><path d="M294.468 330.115l.1 1.95-.023.686c-.464 11.247 6.754 23.3 17.623 24.93a3.69 3.69 0 0 0 .244.045c.1 0 .222.02.376.02 2.325.288 10.738.974 13.815-2.412 3.6-3.987 6.818-11.3 6.818-16.283s-.906-6.173-.906-8.185c0-1.573.844-6.5.86-8.625.07-10.038-6.683-20-18.682-20-18.002 0-20.747 15.787-20.237 27.874zm-42.25 108.045c5.9 2.457 23.37-30.55 29.74-45.108s8.788-27.17 1.573-30.17-14.454 7.6-20.287 22.385-16.933 50.435-11.025 52.894z"/><path d="M254.46 503.83c5.675.1 7.895-41.648 8.083-53.44s-.487-24.252-6.85-24.353-7.43 12.332-7.617 24.124.71 53.58 6.384 53.67z"/><path d="M254.908 493.025c-6.68-.6-6.4 11.3-6.162 15.353.4 6.6 7.234 13.046 9.8 12.93s.547-15 1.11-15.533.867 7.555 3.267 7.194 1.55-10.166-.273-13.92-3.556-5.647-7.74-6.025z"/></g><path d="M292.4 374.6c-1.01 4.983-4.115 11.914-8.286 19.57l-11.41 20.236-3.124 5.3c-.07.126-.107.2-.107.2l-15.94-6.517s9.46-39.356 24.263-51.45c.634-.33 1.292-.614 1.968-.848 8.358 1.59 14.388 4.91 12.636 13.52z" fill="url(#A)"/><g fill="#f7d6b2"><path d="M308.65 478.493c-5.493 2.08-8.553 10.8-6.7 18.91 2 8.43 4.9 16.62 8.65 24.43 11.414 24.195 20.244 56.545 28.34 56.43s10.78-20.182 2.846-46.32c-7.168-23.624-13.736-54.607-19.7-56.145-3.012-.78-8.627.873-13.437 2.696z"/><path d="M341.6 573.1c-21.994-6.734-12.04 99.676-4.658 118.576s10.155-31.525 11.484-64.145 1.827-51.78-6.826-54.43z"/><use xlink:href="#P"/><use xlink:href="#P" x="-49.502"/><path d="M281.895 478.107c-5.794.976-10.484 8.94-10.234 17.255a120.61 120.61 0 0 0 3.752 25.643c6.508 25.947 8.9 59.395 16.866 60.85s14.484-17.7 11.768-44.9c-2.455-24.566-2.893-56.235-8.442-58.9-2.81-1.35-8.642-.814-13.7.042z"/><path d="M295.325 575.383c-21.63-7.833-15.59 98.982-9.168 118.228s10.283-31 13.25-63.52 4.427-51.63-4.08-54.707z"/></g><path d="M332.475 478.987s19.567 82.4 19.122 99.755l-3.77 108.075H332.2c-12.046-65.5-7.068-104.488-8.4-111.83s-16.018-38.713-16.018-38.713l-.67 46.054c0 10.012-9 103.82-9 103.82l-16.157.333-5.2-77.122c0-13.016 3.17-33.373 3-36.042s-25.363-68.08-8.677-93.444c21.94-33.35 61.405-.888 61.405-.888z" fill="#652079"/><path d="M340.356 389.23a18.05 18.05 0 0 1-.378 4.151l-.67 2.782c-.83 3.14-2.312 7.835-4.93 15.74-7.076 21.34-.776 67.392-.686 67.843 0 0-64.23 1.553-64.087-.308 1.03-12.69 10.832-23.972 2.474-68.582-6.86-36.683 2.256-50.637 10.307-51.594 15.868-1.9 43.868 7.566 47.695 11.12s10.147 10.94 10.273 18.847z" fill="url(#B)"/><path d="M397.878 369.975c-.865-6.288-37.856-4.653-53.5-2.795s-27.645 6.12-26.6 13.8 13.757 8.546 29.327 6.117 51.626-10.832 50.763-17.122z" fill="#eed7ba"/><path d="M370.017 383.254s-17 6.536-30.11 10.147c-8.03 2.21-15.236 1.372-16.826-3.4-.036-.126-.252-.1-.378-.143-8.18-3.213-10.75-16.88-2.716-20.44 4.64-2.058 14.554-1.775 23.186-2.416l22.908-1.48 3.72 16.736z" fill="url(#C)"/><path d="M336.397 316.01a19.68 19.68 0 0 1-2.882 8.792c-5.59 9.6-8.792 18.65-8.632 29.927.2 13.507 8.3 29.61-.08 42.108-12.2 18.2-43.53 16.9-57.164 1.7-9.115-10.162-11.21-26.61-.515-36.634 4.617-4.33 8.94-8.46 11.606-14.277 7.442-16.227 6.54-42.3 27.218-48.92 11.56-3.697 31.26 2.766 30.448 17.303z" fill="#1d262d"/><path d="M347.193 694.426s1.48 4.292 10.4 9.878 11.273 4.37 11.473 6.46-37.125.37-37.125.37l.583-17.182s14.656.026 14.66.475zm-49.503-.47s1.694 3.607 7.7 9.43c5.314 5.145 10.008 4.045 9.578 5.884-.412 1.767-31.97.622-31.97.622v-15.937z" fill="#652079"/><g fill="#eed7ba"><path d="M343.013 316.854c-4.027 3.93 23.8 34.647 31.97 43.016s17.41 16.6 21.926 12.19-3.49-13.845-11.66-22.212-38.2-36.925-42.237-32.993z"/><path d="M329.635 306.13c-1.566 1.56 6.74 9.157 8.914 11.63.33.374.526.637.517.737s-.145.1-.35.045c-1.282-.35-5.86-3.275-7.168-1.667-1.438 1.77 4.89 7.76 8.828 9.7.218.107.457.252.66.333 3.844 1.534 6.376 1.77 9.7-.748 5.3-4.017-2.844-12.56-5.726-15.373a20.74 20.74 0 0 0-9.076-4.784c-2.9-.735-5.427-.74-6.3.128z"/></g><path d="M272.767 414.232l-.073.162-3.124 5.3 1.7-16.952a88.23 88.23 0 0 0 1.497 11.5z" opacity=".5" fill="url(#D)" style="mix-blend-mode:multiply"/><path d="M339.978 393.385l-.67 2.782c-4.025 2.42-12.12.547-12.12.547l12.717-3.3s.017-.02.073-.02z" opacity=".5" fill="url(#D)" style="mix-blend-mode:multiply"/><g transform="translate(639.201 508.901)"><path d="M65.392 155.038c-1.216 8.01-1.29 16.154-.216 24.186a37.23 37.23 0 0 1 .288 6.788c-.132 2.36-.61 5.03-2.6 6.3-3.045 1.93-6.9-.848-9.053-3.73-9.4-12.546-9.96-29.117-17.97-42.368-1.235-2.038-2.6-4.055-3.99-6.08l2.348-8.974-4.89 5.312c-5.59-8.07-10.993-16.422-10.935-26.468l7.168.61-7.108-2.852c.274-6.767 1.13-13.753-1.248-20.122C15.46 83 12.098 79.314 8.925 75.48l4.7-6.99s-4.457 1.4-8.34 2.2a27.38 27.38 0 0 1-.855-1.365C.196 62.11-.26 53.826.098 45.68c.14-4.593.566-9.173 1.274-13.714l3.2.167-2.538-3.49c.54-2.43 1.272-4.814 2.2-7.128.64-1.6 2.99-7.24 5.038-7.472 5.916-.667 10.854 4.74 12.965 10.3 2 5.27 2.916 10.538 5.175 15.47l-2.874 3.047 4.906.652c.237.37.483.73.748 1.088 6.036 8.254 16.685 14.685 22.872 22.76-4.726 1.286-9.21 2.852-9.21 2.852l13.052 4.074c1.536 4.49 1.43 9.593-1.37 15.7-.906 1.985-1.908 3.884-2.808 5.8l-3.468-2.344 2.414 4.786a20.18 20.18 0 0 0-1.615 8.063c.2 8.647 5.606 15.885 10 23.38l-1.4 4.472 3.675-.36a35.64 35.64 0 0 1 2.425 6 34.91 34.91 0 0 1 .662 15.242z" fill="url(#E)"/><path d="M53.752 168.33c-1.93-20.776-7.62-29.878-12.644-37.907-2.406-3.848-4.68-7.484-6.094-11.92-1.6-5.027-1.788-11.217-1.985-17.768-.323-10.8-.656-21.945-7.3-29.156-11.34-12.294-13.6-40.757-13.606-41.027l1.98-.032-.99.015.99-.02c.006.265 2.122 27.844 13.08 39.723 7.15 7.75 7.5 19.285 7.828 30.436.192 6.4.374 12.463 1.893 17.227 1.337 4.2 3.446 7.57 5.886 11.47 4.884 7.81 10.965 17.53 12.935 38.773z" fill="url(#F)" style="mix-blend-mode:screen"/><path d="M74.29 173.3c3.782-1.887 6.9-4.284 8.653-6.89 5.927-8.828 5.273-20.69 6.938-30.758 1.98-11.98 7.328-23.812 16.808-31.406 7.688-6.158 12.85-13 14.46-23.037 1.585-9.867.55-19.913 1.622-29.822a155.14 155.14 0 0 1 6.284-30.564c2.68-8.448 5.52-22.56-8.49-20.646-5.606.8-10.713 3.654-14.31 8.025-9.3 11.405-8.5 27.573-15.435 40.178-3.5 6.365-8.9 11.1-14.048 16.1-4.617 4.5-9.493 9.884-10.465 16.51-.566 3.85-.113 7.828-1.008 11.617-1.252 5.286-4.9 9.412-8.232 13.525-3.415 4.41-6.352 9.17-8.76 14.2-6.453 12.642-12.81 28.786-8.974 43.042 1.12 4.16 3.17 8.237 6.613 10.824 7.7 5.78 20.415 3.06 28.346-.896z" fill="url(#G)"/><path d="M74.238 82.828a1.28 1.28 0 0 1 1.449 1.09l3.7 26.3 23.473-46.165a1.28 1.28 0 1 1 2.284 1.162L87.968 98.97l23.888-16.734a1.28 1.28 0 0 1 1.762.331 1.28 1.28 0 0 1-.292 1.769l-27.128 19c-.166.1-.357.178-.555.2l-22.4 44.046 16.4-7.437c.645-.293 1.405-.007 1.697.638s.007 1.405-.637 1.697l-18.335 8.32a1.28 1.28 0 0 1-.8.085l-4.263 8.38c-.153.304-.42.534-.744.64s-.675.078-.978-.077c-.143-.072-.27-.17-.378-.288-.35-.395-.423-.964-.184-1.434l22.48-44.208a1.28 1.28 0 0 1-.291-.641l-4.066-28.983a1.28 1.28 0 0 1 1.095-1.446z" fill="url(#H)" style="mix-blend-mode:screen"/><path d="M68.558 47.83c5.384-8.66 10.4-11.9 10.463-11.948.21-.135.362-.34.432-.58 5.9-4.735 21.733-18.4 13.762-23.165-7.895-4.713-13.6 14.67-15.47 22.067-.942.624-5.732 4.077-10.862 12.294 1.942-7.933 5.694-26.932-3.21-25.95-9.986 1.1-.538 23.562 1.684 28.538a78.28 78.28 0 0 0-5.312 11.67 88.79 88.79 0 0 0-1.07 3.141c0-8.75-.99-26.05-9-23.23-9.26 3.254 4.158 22.167 7.854 27.1a124.8 124.8 0 0 0-3.773 20.65c-1.9-8.06-7.115-26.36-14.55-21.5-8.324 5.435 9.78 20.928 14.266 24.586a182.15 182.15 0 0 0-.519 19.266C50.307 103.327 42.25 85.2 35.486 91.226c-7.467 6.65 13.016 19.394 17.843 22.244.2 5.4.6 11.164 1.276 17.31-5.145-5.87-19.16-20.633-23.528-12.576-4.624 8.523 17.41 13.514 23.778 14.762.73 6.24 1.714 12.852 3 19.877-3.948-4.643-19.842-22.438-24.55-13.76-4.91 9.042 20.25 14.112 24.775 14.944q1.27 6.743 2.912 13.97a1.05 1.05 0 0 0 1.258.788c.058-.013.115-.032.17-.056a1.05 1.05 0 0 0 .62-1.2q-1.654-7.233-2.908-13.952c5.143-.513 30.33-3.5 25.692-12.542-4.512-8.8-21.654 7.367-25.883 11.557-1.278-6.908-2.25-13.41-2.976-19.545 4.886-.48 30.48-3.446 25.8-12.552-4.527-8.826-21.77 7.476-25.92 11.6-.778-6.78-1.243-13.1-1.45-18.97 5.463-.278 30.284-2.06 26.14-11.238-4-8.86-21.387 5.767-26.177 10.036a181.8 181.8 0 0 1 .474-20.27c5.49.273 30.32.99 27.122-8.553-3.08-9.192-21.753 3.512-27.01 7.32a124.55 124.55 0 0 1 3.9-22.15c5.852.286 30.1.917 26.953-8.523-2.972-8.907-20.6 2.705-26.487 6.9.52-1.754 1.06-3.4 1.61-4.933 1.457-4.097 3.267-8.06 5.4-11.845 5.418.192 30.376.575 27.034-8.942-3.016-8.6-19.516 2.326-25.823 6.903z" fill="#1d262d"/><g transform="translate(20.507 135.723)" fill="url(#D)"><path d="M15.983 66.433h46.66a5.79 5.79 0 0 0 5.767-5.3L74.36-.001H4.266l5.95 61.134a5.79 5.79 0 0 0 5.767 5.3z"/><rect width="78.623" height="11.885" rx="1.177" transform="matrix(-1 0 0 -1 78.623 11.885)"/></g></g></g></svg>