<svg xmlns="http://www.w3.org/2000/svg" xmlns:xlink="http://www.w3.org/1999/xlink" width="27.609" height="30" viewBox="0 0 27.609 30"><defs><filter id="a" x="0" y="0" width="25" height="30" filterUnits="userSpaceOnUse"><feOffset dy="3" input="SourceAlpha"/><feGaussianBlur stdDeviation="3" result="b"/><feFlood flood-opacity="0.161"/><feComposite operator="in" in2="b"/><feComposite in="SourceGraphic"/></filter></defs><g transform="translate(-16 -450)"><g transform="matrix(1, 0, 0, 1, 16, 450)" filter="url(#a)"><text transform="translate(9 16)" fill="#fff" font-size="11" font-family="Arial-BoldMT, Arial" font-weight="700"><tspan x="0" y="0">#</tspan></text></g><path d="M26.185,22.666l-5.772-4.909a2.576,2.576,0,0,0-1.75-.76,9.14,9.14,0,1,0-1.023,1.023,2.576,2.576,0,0,0,.76,1.75l4.909,5.772a2.047,2.047,0,1,0,2.876-2.876ZM11.709,17.159A6.092,6.092,0,1,1,17.8,11.067,6.092,6.092,0,0,1,11.709,17.159Z" transform="translate(16.669 451.072)" fill="#fff"/></g></svg>